<svg width="283" height="214" viewBox="0 0 283 214" fill="none" xmlns="http://www.w3.org/2000/svg">
<path d="M168.953 45.3694L162.086 49.6728L152.651 46.6578L154.053 36.8532L160.92 32.5498" stroke="black" stroke-width="4.4081"/>
<path d="M150.684 15.5422L171.78 67.9839L186.026 1.64394L150.684 15.5422Z" fill="white" stroke="black" stroke-width="0.906295" stroke-linejoin="bevel"/>
<path d="M159.314 12.1484L162.546 20.3677L154.327 23.5999" stroke="black" stroke-width="0.906295"/>
<line x1="162.761" y1="40.224" x2="159.473" y2="41.5168" stroke="black" stroke-width="0.906295"/>
<line x1="163.569" y1="42.2789" x2="160.281" y2="43.5718" stroke="black" stroke-width="0.906295"/>
<line y1="-0.453147" x2="3.53278" y2="-0.453147" transform="matrix(0.970054 0.242888 0.242888 -0.970054 177.953 32.1199)" stroke="black" stroke-width="0.906295"/>
<line y1="-0.453147" x2="3.53278" y2="-0.453147" transform="matrix(0.970054 0.242888 0.242888 -0.970054 177.416 34.2617)" stroke="black" stroke-width="0.906295"/>
<line y1="-0.453147" x2="3.53278" y2="-0.453147" transform="matrix(0.970054 0.242888 0.242888 -0.970054 176.88 36.4033)" stroke="black" stroke-width="0.906295"/>
<line x1="168.99" y1="10.241" x2="167.697" y2="6.95332" stroke="black" stroke-width="0.906295"/>
<path d="M52.4653 56.6139L56.4124 59.4416L62.2529 58.6576L65.3144 54.889L63.691 42.7957L59.744 39.968L53.9035 40.752L50.8419 44.5206L52.4653 56.6139Z" fill="#EEA71F"/>
<path d="M57.5805 59.2848L56.2477 49.356L59.752 48.8855L61.0848 58.8144" stroke="black" stroke-width="0.906295"/>
<rect x="52.7521" y="58.7441" width="12.9644" height="7.07147" transform="rotate(-7.64564 52.7521 58.7441)" fill="#D0D0D0"/>
<rect x="50.7289" y="61.3938" width="2.35716" height="2.35716" transform="rotate(-7.64564 50.7289 61.3938)" fill="black"/>
<rect x="65.9147" y="59.3552" width="2.35716" height="2.35716" transform="rotate(-7.64564 65.9147 59.3552)" fill="black"/>
<rect x="58.9045" y="60.2959" width="2.35716" height="2.35716" transform="rotate(-7.64564 58.9045 60.2959)" fill="black"/>
<path d="M56.9976 37.6877L56.3918 33.2044" stroke="#EEA71F" stroke-width="0.906295"/>
<path d="M49.5873 41.022L45.741 38.6402" stroke="#EEA71F" stroke-width="0.906295"/>
<path d="M64.4231 39.0981L67.498 35.7797" stroke="#EEA71F" stroke-width="0.906295"/>
<path d="M83.8464 207.227V213.281H124.894V207.227L107.302 193.099H95.2656L83.8464 207.227Z" fill="black"/>
<path d="M71.7059 207.227V213.282H112.753V207.227L95.1616 193.099H83.1251L71.7059 207.227Z" fill="black"/>
<path d="M95.9869 193.847L112.464 207.302V212.16" stroke="#535353" stroke-width="0.906295"/>
<path d="M77.4869 206.928V210.292H104.659V206.928L93.0139 197.584H85.0461L77.4869 206.928Z" fill="black"/>
<path d="M98.8776 196.089H109.862" stroke="#535353" stroke-width="0.906295"/>
<path d="M105.237 201.321H116.222" stroke="#535353" stroke-width="0.906295"/>
<path d="M112.753 207.302H123.738" stroke="#535353" stroke-width="0.906295"/>
<path fill-rule="evenodd" clip-rule="evenodd" d="M149.719 45.2441L124.901 58.5793V107.119L99.3385 137.294L103.949 141.2L130.943 109.334V62.1918L152.579 50.5665L149.719 45.2441Z" fill="#8E8E8E"/>
<path fill-rule="evenodd" clip-rule="evenodd" d="M144.379 55.0852L145.389 54.5425L142.435 49.0457L141.425 49.5883L144.379 55.0852ZM131.043 76.8526V75.8125H124.802V76.8526H131.043ZM131.043 92.7995V91.7595H124.802V92.7995H131.043ZM119.449 123.056L120.134 122.247L115.373 118.213L114.688 119.023L119.449 123.056ZM108.938 135.464L109.623 134.655L104.862 130.622L104.176 131.431L108.938 135.464ZM104.025 141.264L104.367 140.859L99.606 136.826L99.2633 137.23L104.025 141.264Z" fill="black"/>
<path fill-rule="evenodd" clip-rule="evenodd" d="M66.5068 122.308L64.7574 114.611L70.6491 113.272L72.6962 122.279L70.6553 131.667L64.7512 130.384L66.5068 122.308Z" fill="#8E8E8E"/>
<path d="M29.1061 137.353H104.402V207.587H29.1061V137.353Z" fill="#535353"/>
<path d="M34.6135 129.127L29.1055 137.347H104.401L98.9151 129.127H34.6135Z" fill="#535353"/>
<line x1="29.1061" y1="137.532" x2="104.402" y2="137.532" stroke="black" stroke-width="0.906295"/>
<rect x="25.927" y="69.373" width="73.5095" height="54.7237" transform="rotate(-8.33933 25.927 69.373)" fill="#535353"/>
<path fill-rule="evenodd" clip-rule="evenodd" d="M40.5875 73.0024L37.7377 76.7395L40.9926 98.9442L40.9935 98.944L43.0904 113.249L46.8929 116.011L97.6164 108.576L100.466 104.839L97.2114 82.634L97.2104 82.6341L95.1135 68.329L91.3111 65.5671L40.5875 73.0024Z" fill="black"/>
<path d="M23.5979 81.6383L34.3853 76.3882L40.3084 116.795L28.2705 113.515L23.5979 81.6383Z" fill="#535353"/>
<line x1="30.5333" y1="69.5231" x2="38.2333" y2="122.052" stroke="black" stroke-width="0.906295"/>
<line x1="26.4169" y1="80.8583" x2="31.1553" y2="113.184" stroke="black" stroke-width="0.906295"/>
<path d="M66.4379 122.8L69.6016 122.484L72.7653 122.167" stroke="black" stroke-width="0.906295"/>
<path d="M24.1626 207.227V213.281H65.21V207.227L47.6183 193.099H35.5818L24.1626 207.227Z" fill="black"/>
<path d="M12.0223 207.227V213.282H53.0697V207.227L35.478 193.1H23.4415L12.0223 207.227Z" fill="black"/>
<path d="M36.3033 193.846L52.7801 207.301V212.16" stroke="#535353" stroke-width="0.906295"/>
<path d="M17.8034 206.928L17.74 209.918H44.9123L44.9757 206.928L33.3304 197.584H25.3626L17.8034 206.928Z" fill="#D0D0D0"/>
<path d="M39.194 196.089H50.1785" stroke="#535353" stroke-width="0.906295"/>
<path d="M45.5535 201.321H56.538" stroke="#535353" stroke-width="0.906295"/>
<path d="M53.0698 207.301H64.0543" stroke="#535353" stroke-width="0.906295"/>
<path d="M29.5884 197.584H33.3259L45.2859 206.928V209.918H32.3452H26.8316L23.3939 205.352L24.6208 199.976L29.5884 197.584Z" fill="#535353"/>
<path d="M29.9624 198.331L34.93 200.724L35.5687 205.806L32.5787 209.17" stroke="black" stroke-width="0.906295"/>
<path d="M29.1205 157.454H42.2941V173.748H59.9744" stroke="black" stroke-width="0.906295"/>
<line x1="82.2681" y1="187.268" x2="82.2681" y2="207.375" stroke="black" stroke-width="0.906295"/>
<path d="M67.2546 149.828V137.001" stroke="black" stroke-width="0.906295"/>
<rect x="-0.453147" y="0.453147" width="37.2163" height="37.2163" transform="matrix(-1 0 0 1 96.3126 149.744)" stroke="black" stroke-width="0.906295"/>
<rect x="-0.453147" y="0.453147" width="5.07372" height="18.5287" transform="matrix(-1 0 0 1 61.9278 159.462)" fill="#535353" stroke="black" stroke-width="0.906295"/>
<line y1="-0.453147" x2="4.48501" y2="-0.453147" transform="matrix(-1 0 0 1 62.0864 166.189)" stroke="black" stroke-width="0.906295"/>
<line y1="-0.453147" x2="4.48501" y2="-0.453147" transform="matrix(-1 0 0 1 62.0864 172.917)" stroke="black" stroke-width="0.906295"/>
<path d="M92.1989 161.614H90.6388V178.255H92.1989" stroke="black" stroke-width="0.906295"/>
<path d="M39.4393 140.778L45.7601 145.37L43.3458 152.801H35.5327L33.1184 145.37L39.4393 140.778Z" fill="black"/>
<path fill-rule="evenodd" clip-rule="evenodd" d="M36.1483 147.935L40.8122 144.094L49.6134 154.78L77.091 154.78L87.9833 130.681L93.489 133.169L80.9907 160.822L46.7622 160.822L36.1483 147.935Z" fill="#8E8E8E"/>
<path fill-rule="evenodd" clip-rule="evenodd" d="M41.2723 154.312L40.5789 153.47L45.3957 149.503L46.0891 150.345L41.2723 154.312ZM56.452 160.921L55.3501 160.921L55.3501 154.681L56.452 154.681L56.452 160.921ZM71.8785 160.921L70.7766 160.921L70.7766 154.681L71.8785 154.681L71.8785 160.921ZM85.0167 152.155L84.599 153.079L78.9127 150.509L79.3304 149.585L85.0167 152.155ZM90.8643 139.217L90.4466 140.141L84.7603 137.571L85.178 136.647L90.8643 139.217ZM93.5793 133.21L93.3705 133.672L87.6842 131.102L87.893 130.64L93.5793 133.21Z" fill="black"/>
<path d="M95.7185 114.447L96.8553 122.503L90.2338 129.918L81.8186 124.625L80.6818 116.569" stroke="black" stroke-width="4.4081"/>
<path d="M85.1332 129.998L87.0267 125.304L92.039 124.597L95.1577 128.584L93.2642 133.278L88.2519 133.986L85.1332 129.998Z" fill="#535353"/>
<path d="M93.2621 130.677L87.0285 127.905" stroke="black" stroke-width="1.10202"/>
<path d="M130.626 109.358L130.999 108.387L125.175 106.147L124.802 107.117L130.626 109.358Z" fill="black"/>
<path d="M130.355 62.0785L130.83 61.1531L125.278 58.3055L124.803 59.2309L130.355 62.0785Z" fill="black"/>
<path d="M76.6037 78.0791L78.1061 77.8827L77.9098 76.3803L81.6658 75.8895L81.8622 77.3919L83.3646 77.1956L84.2481 83.9565L82.7457 84.1528L82.942 85.6552L79.186 86.1461L78.9896 84.6437L77.4872 84.84L76.6037 78.0791Z" fill="#E1503C"/>
<path d="M55.6637 80.7986L57.1662 80.6022L56.9698 79.0998L60.7259 78.609L60.9222 80.1114L62.4247 79.9151L63.3082 86.676L61.8058 86.8723L62.0021 88.3747L58.246 88.8656L58.0497 87.3631L56.5473 87.5595L55.6637 80.7986Z" fill="#E1503C"/>
<path d="M81.7808 96.377L82.1918 99.5224L68.6411 101.293L68.23 98.1478L81.7808 96.377Z" fill="#E1503C"/>
<rect x="51.306" y="79.3889" width="13.1736" height="4.85343" transform="rotate(-7.28094 51.306 79.3889)" fill="black"/>
<rect x="52.6941" y="87.7087" width="13.1736" height="4.85343" transform="rotate(-7.28094 52.6941 87.7087)" fill="black"/>
<rect x="148.755" y="72.1313" width="38.419" height="38.419" fill="#E1503C" stroke="black" stroke-width="0.906295" stroke-linejoin="bevel"/>
<rect x="187.175" y="110.109" width="56.0828" height="56.0828" fill="#2C6FEF" stroke="black" stroke-width="0.906295" stroke-linejoin="bevel"/>
<rect x="187.052" y="72.4917" width="67.7861" height="67.7861" transform="rotate(-56.3396 187.052 72.4917)" fill="#EEA71F" stroke="black" stroke-width="0.906295" stroke-linejoin="bevel"/>
<line x1="214.565" y1="164.425" x2="214.565" y2="167.958" stroke="black" stroke-width="0.906295"/>
<line x1="216.772" y1="164.425" x2="216.772" y2="167.958" stroke="black" stroke-width="0.906295"/>
<line x1="188.941" y1="137.499" x2="185.408" y2="137.499" stroke="black" stroke-width="0.906295"/>
<line x1="188.94" y1="139.707" x2="185.408" y2="139.707" stroke="black" stroke-width="0.906295"/>
<line x1="245.024" y1="137.499" x2="241.491" y2="137.499" stroke="black" stroke-width="0.906295"/>
<line x1="245.024" y1="139.707" x2="241.491" y2="139.707" stroke="black" stroke-width="0.906295"/>
<line x1="150.522" y1="91.573" x2="146.989" y2="91.573" stroke="black" stroke-width="0.906295"/>
<line x1="168.174" y1="73.8975" x2="168.174" y2="70.3647" stroke="black" stroke-width="0.906295"/>
<line x1="168.174" y1="112.317" x2="168.174" y2="108.784" stroke="black" stroke-width="0.906295"/>
<path d="M187.173 110.551L243.698 110.109L187.173 72.5732L187.173 110.551Z" fill="white" stroke="black" stroke-width="0.906295" stroke-linejoin="bevel"/>
<path d="M187.173 101.719H196.005V110.55" stroke="black" stroke-width="0.906295"/>
<line x1="214.565" y1="108.784" x2="214.565" y2="112.317" stroke="black" stroke-width="0.906295"/>
<line x1="216.772" y1="108.784" x2="216.772" y2="112.317" stroke="black" stroke-width="0.906295"/>
<line x1="214.295" y1="88.2887" x2="212.275" y2="91.1866" stroke="black" stroke-width="0.906295"/>
<line x1="216.107" y1="89.5514" x2="214.086" y2="92.4493" stroke="black" stroke-width="0.906295"/>
<line x1="217.918" y1="90.8143" x2="215.897" y2="93.7123" stroke="black" stroke-width="0.906295"/>
<line x1="188.94" y1="91.5733" x2="185.408" y2="91.5733" stroke="black" stroke-width="0.906295"/>
<path d="M147.917 46.2562L150.677 42.0359L155.712 42.3161L157.987 46.8167L155.227 51.037L150.192 50.7568L147.917 46.2562Z" fill="#535353"/>
<path d="M155.729 48.4954L150.175 44.5787" stroke="black" stroke-width="1.10202"/>
<path d="M281.234 110.109L280.793 53.5844L243.257 110.109L281.234 110.109Z" fill="white" stroke="black" stroke-width="0.906295" stroke-linejoin="bevel"/>
<path d="M272.402 110.109L272.402 101.277L281.234 101.277" stroke="black" stroke-width="0.906295"/>
<line x1="279.467" y1="82.7182" x2="283" y2="82.7182" stroke="black" stroke-width="0.906295"/>
<line x1="279.467" y1="80.5102" x2="282.999" y2="80.5102" stroke="black" stroke-width="0.906295"/>
<line x1="258.973" y1="82.9881" x2="261.87" y2="85.0087" stroke="black" stroke-width="0.906295"/>
<line x1="260.234" y1="81.1759" x2="263.132" y2="83.1964" stroke="black" stroke-width="0.906295"/>
<line x1="261.497" y1="79.3646" x2="264.395" y2="81.3851" stroke="black" stroke-width="0.906295"/>
<line x1="203.44" y1="44.3368" x2="206.338" y2="46.3573" stroke="black" stroke-width="0.906295"/>
<line x1="204.702" y1="42.5248" x2="207.6" y2="44.5453" stroke="black" stroke-width="0.906295"/>
<line x1="205.964" y1="40.7137" x2="208.862" y2="42.7343" stroke="black" stroke-width="0.906295"/>
<line x1="262.257" y1="108.342" x2="262.257" y2="111.875" stroke="black" stroke-width="0.906295"/>
<path d="M280.792 15.6069L224.268 16.0485L280.792 53.5843L280.792 15.6069Z" fill="white" stroke="black" stroke-width="0.906295" stroke-linejoin="bevel"/>
<path d="M280.792 24.8804L271.96 24.8804L271.96 16.0484" stroke="black" stroke-width="0.906295"/>
<line x1="253.401" y1="17.8149" x2="253.401" y2="14.2822" stroke="black" stroke-width="0.906295"/>
<line x1="251.193" y1="17.8149" x2="251.193" y2="14.2822" stroke="black" stroke-width="0.906295"/>
<line y1="-0.453147" x2="3.53278" y2="-0.453147" transform="matrix(-0.581042 0.813873 0.813873 0.581042 255.386 34.917)" stroke="black" stroke-width="0.906295"/>
<line y1="-0.453147" x2="3.53278" y2="-0.453147" transform="matrix(-0.581042 0.813873 0.813873 0.581042 253.587 33.6343)" stroke="black" stroke-width="0.906295"/>
<line y1="-0.453147" x2="3.53278" y2="-0.453147" transform="matrix(-0.581042 0.813873 0.813873 0.581042 251.792 32.3513)" stroke="black" stroke-width="0.906295"/>
<line x1="279.025" y1="34.584" x2="282.558" y2="34.584" stroke="black" stroke-width="0.906295"/>
<rect x="168.799" y="42.2983" width="5.24815" height="9.67022" transform="rotate(60 168.799 42.2983)" fill="black"/>
</svg>
